<svg width="101" height="58" viewBox="0 0 101 58" fill="none" xmlns="http://www.w3.org/2000/svg">
<g clip-path="url(#clip0_2_35)">
<path d="M78.3374 20.8884H101V15.4392H77.208V15.3514H71.8714C72.1201 16.8955 72.9072 18.3004 74.0918 19.3148C75.2763 20.3291 76.7812 20.8869 78.3374 20.8884V20.8884Z" fill="#F44040"/>
<path d="M79.015 7.71961V13.1687H101V6.58437C100.999 4.83845 100.308 3.16439 99.0801 1.92984C97.852 0.695294 96.1866 0.00119902 94.4497 -3.8147e-06H78.3374C76.6005 0.00119902 74.9351 0.695294 73.7069 1.92984C72.4788 3.16439 71.7882 4.83845 71.787 6.58437V14.304C71.7877 14.6548 71.8159 15.0051 71.8714 15.3514H77.208V5.44913H95.579V7.71961H79.015Z" fill="white"/>
<path d="M83.272 15.3136L70.9995 50.8843C69.569 55.1226 65.428 57.9985 60.7599 57.9985C56.0919 57.9985 51.9509 55.1226 50.5203 50.8843L41.636 24.4712L32.7516 50.8843C31.3211 55.1226 27.1801 57.9985 22.512 57.9985C17.844 57.9985 13.703 55.1226 12.2725 50.8843L0 15.3136H11.4442L22.512 47.9327L31.3964 21.5195C32.8269 17.2813 36.9679 14.4054 41.636 14.4054C46.304 14.4054 50.445 17.2813 51.8756 21.5195L60.7599 47.9327L71.7524 15.3136H83.272Z" fill="white"/>
</g>
<defs>
<clipPath id="clip0_2_35">
<rect width="101" height="58" fill="white"/>
</clipPath>
</defs>
</svg>
