<svg width="1440" height="231" viewBox="0 0 1440 231" fill="none" xmlns="http://www.w3.org/2000/svg">
<path d="M-98 115C-24.6667 41.6667 48.6667 41.6667 122 115C195.333 188.333 268.667 188.333 342 115C415.333 41.6667 488.667 41.6667 562 115C635.333 188.333 708.667 188.333 782 115C855.333 41.6667 928.667 41.6667 1002 115C1075.33 188.333 1148.67 188.333 1222 115C1295.33 41.6667 1368.67 41.6667 1442 115C1515.33 188.333 1588.67 188.333 1662 115C1735.33 41.6667 1808.67 41.6667 1882 115C1955.33 188.333 2028.67 188.333 2102 115C2175.33 41.6667 2248.67 41.6667 2322 115C2395.33 188.333 2468.67 188.333 2542 115C2615.33 41.6667 2688.67 41.6667 2762 115C2835.33 188.333 2908.67 188.333 2982 115C3055.33 41.6667 3128.67 41.6667 3202 115C3275.33 188.333 3348.67 188.333 3422 115C3495.33 41.6667 3568.67 41.6667 3642 115C3715.33 188.333 3788.67 188.333 3862 115C3935.33 41.6667 4008.67 41.6667 4082 115C4155.33 188.333 4228.67 188.333 4302 115" stroke="#3BB9CC" stroke-width="121"/>
</svg>
